<svg width="461" height="134" viewBox="0 0 461 134" fill="none" xmlns="http://www.w3.org/2000/svg">
<path d="M285.158 36.269L282.446 35.5223C281.265 35.1975 280.074 36.0237 279.961 37.2472L278.613 51.7626C278.5 52.9861 279.519 54.0124 280.74 53.9045L283.544 53.6566C285.182 53.512 286.484 52.2127 286.637 50.5717L287.631 39.8567C287.784 38.2165 286.742 36.7055 285.158 36.269ZM277.365 50.4981C274.616 49.6359 272.751 46.9358 273.028 43.9422C273.303 40.9397 275.633 38.6227 278.5 38.2572L277.365 50.4981Z" fill="#7F5AF0"/>
<path d="M7.01054 107V26.3394H23.7886V56.6659H24.3006C25.0358 55.038 26.0992 53.3838 27.4908 51.7034C28.9086 49.9967 30.7466 48.5788 33.0047 47.4498C35.289 46.2945 38.1248 45.7168 41.5119 45.7168C45.923 45.7168 49.9928 46.8721 53.7212 49.1827C57.4497 51.467 60.4298 54.9198 62.6617 59.541C64.8935 64.1359 66.0094 69.8993 66.0094 76.831C66.0094 83.579 64.9197 89.2767 62.7404 93.9242C60.5874 98.5453 57.6466 102.051 53.9182 104.44C50.216 106.803 46.0674 107.985 41.4725 107.985C38.2167 107.985 35.4466 107.446 33.1622 106.37C30.9042 105.293 29.0531 103.941 27.6089 102.313C26.1648 100.659 25.062 98.9917 24.3006 97.3113H23.5523V107H7.01054ZM23.4341 76.7523C23.4341 80.3494 23.933 83.4871 24.9308 86.1653C25.9285 88.8435 27.3726 90.9309 29.2631 92.4275C31.1536 93.8979 33.4511 94.6331 36.1555 94.6331C38.8862 94.6331 41.1968 93.8848 43.0873 92.3881C44.9778 90.8652 46.4087 88.7647 47.3802 86.0865C48.378 83.3821 48.8769 80.2707 48.8769 76.7523C48.8769 73.2601 48.3911 70.1881 47.4196 67.5362C46.4481 64.8842 45.0171 62.8099 43.1267 61.3133C41.2362 59.8167 38.9125 59.0684 36.1555 59.0684C33.4248 59.0684 31.1142 59.7904 29.2237 61.2345C27.3595 62.6787 25.9285 64.7267 24.9308 67.3786C23.933 70.0305 23.4341 73.1551 23.4341 76.7523ZM77.2046 107V46.5045H93.4706V57.0597H94.1008C95.2036 53.305 97.0547 50.4693 99.6541 48.5526C102.253 46.6096 105.247 45.6381 108.634 45.6381C109.474 45.6381 110.38 45.6906 111.351 45.7956C112.323 45.9006 113.176 46.045 113.911 46.2288V61.1164C113.124 60.8801 112.034 60.67 110.643 60.4862C109.251 60.3024 107.977 60.2105 106.822 60.2105C104.354 60.2105 102.148 60.7488 100.205 61.8253C98.2887 62.8756 96.7658 64.346 95.6368 66.2364C94.534 68.1269 93.9826 70.3062 93.9826 72.7744V107H77.2046ZM147.34 108.182C141.117 108.182 135.76 106.921 131.27 104.401C126.807 101.854 123.367 98.2565 120.952 93.6091C118.536 88.9354 117.328 83.4083 117.328 77.028C117.328 70.8051 118.536 65.3437 120.952 60.6438C123.367 55.9438 126.767 52.281 131.152 49.6553C135.563 47.0297 140.736 45.7168 146.67 45.7168C150.661 45.7168 154.376 46.3601 157.816 47.6467C161.282 48.907 164.301 50.8106 166.875 53.3575C169.474 55.9044 171.496 59.1078 172.94 62.9675C174.384 66.801 175.106 71.2909 175.106 76.4372V81.0452H124.024V70.6476H159.313C159.313 68.232 158.787 66.092 157.737 64.2278C156.687 62.3636 155.23 60.9063 153.365 59.8561C151.527 58.7795 149.388 58.2413 146.946 58.2413C144.399 58.2413 142.141 58.8321 140.171 60.0136C138.228 61.1689 136.706 62.7312 135.603 64.7004C134.5 66.6434 133.935 68.8096 133.909 71.199V81.0846C133.909 84.0779 134.461 86.6642 135.563 88.8435C136.692 91.0228 138.281 92.7032 140.329 93.8848C142.377 95.0663 144.806 95.6571 147.615 95.6571C149.479 95.6571 151.186 95.3945 152.735 94.8694C154.284 94.3443 155.61 93.5566 156.713 92.5063C157.816 91.456 158.656 90.1694 159.234 88.6466L174.752 89.6706C173.964 93.399 172.349 96.6549 169.907 99.4381C167.492 102.195 164.367 104.348 160.534 105.897C156.726 107.42 152.328 108.182 147.34 108.182ZM213.625 108.182C207.402 108.182 202.045 106.921 197.556 104.401C193.092 101.854 189.652 98.2565 187.237 93.6091C184.821 88.9354 183.613 83.4083 183.613 77.028C183.613 70.8051 184.821 65.3437 187.237 60.6438C189.652 55.9438 193.052 52.281 197.437 49.6553C201.848 47.0297 207.021 45.7168 212.955 45.7168C216.946 45.7168 220.661 46.3601 224.101 47.6467C227.567 48.907 230.586 50.8106 233.16 53.3575C235.759 55.9044 237.781 59.1078 239.225 62.9675C240.669 66.801 241.391 71.2909 241.391 76.4372V81.0452H190.309V70.6476H225.598C225.598 68.232 225.073 66.092 224.022 64.2278C222.972 62.3636 221.515 60.9063 219.651 59.8561C217.813 58.7795 215.673 58.2413 213.231 58.2413C210.684 58.2413 208.426 58.8321 206.457 60.0136C204.514 61.1689 202.991 62.7312 201.888 64.7004C200.785 66.6434 200.221 68.8096 200.194 71.199V81.0846C200.194 84.0779 200.746 86.6642 201.848 88.8435C202.978 91.0228 204.566 92.7032 206.614 93.8848C208.662 95.0663 211.091 95.6571 213.9 95.6571C215.765 95.6571 217.471 95.3945 219.02 94.8694C220.57 94.3443 221.895 93.5566 222.998 92.5063C224.101 91.456 224.941 90.1694 225.519 88.6466L241.037 89.6706C240.249 93.399 238.634 96.6549 236.192 99.4381C233.777 102.195 230.652 104.348 226.819 105.897C223.011 107.42 218.613 108.182 213.625 108.182ZM252.025 107V96.9962L281.643 60.3287V59.8955H253.049V46.5045H301.847V57.4142L274.041 93.1758V93.6091H302.871V107H252.025ZM341.538 108.182C335.315 108.182 329.958 106.921 325.468 104.401C321.005 101.854 317.565 98.2565 315.15 93.6091C312.734 88.9354 311.526 83.4083 311.526 77.028C311.526 70.8051 312.734 65.3437 315.15 60.6438C317.565 55.9438 320.965 52.281 325.35 49.6553C329.761 47.0297 334.934 45.7168 340.868 45.7168C344.859 45.7168 348.574 46.3601 352.014 47.6467C355.48 48.907 358.499 50.8106 361.073 53.3575C363.672 55.9044 365.694 59.1078 367.138 62.9675C368.582 66.801 369.304 71.2909 369.304 76.4372V81.0452H318.222V70.6476H353.511C353.511 68.232 352.985 66.092 351.935 64.2278C350.885 62.3636 349.428 60.9063 347.563 59.8561C345.725 58.7795 343.586 58.2413 341.144 58.2413C338.597 58.2413 336.339 58.8321 334.369 60.0136C332.426 61.1689 330.904 62.7312 329.801 64.7004C328.698 66.6434 328.133 68.8096 328.107 71.199V81.0846C328.107 84.0779 328.659 86.6642 329.761 88.8435C330.89 91.0228 332.479 92.7032 334.527 93.8848C336.575 95.0663 339.004 95.6571 341.813 95.6571C343.677 95.6571 345.384 95.3945 346.933 94.8694C348.482 94.3443 349.808 93.5566 350.911 92.5063C352.014 91.456 352.854 90.1694 353.432 88.6466L368.95 89.6706C368.162 93.399 366.547 96.6549 364.105 99.4381C361.69 102.195 358.565 104.348 354.732 105.897C350.924 107.42 346.526 108.182 341.538 108.182Z" fill="white"/>
<path d="M385.317 72.7902C384.466 72.7902 383.777 73.4796 383.777 74.3303V80.4943C383.777 81.3467 384.466 82.0362 385.317 82.0362C386.167 82.0362 386.857 81.3467 386.857 80.4943V74.3303C386.857 73.4796 386.167 72.7902 385.317 72.7902ZM391.481 66.6262C390.63 66.6262 389.939 67.3174 389.939 68.1681V86.6583C389.939 87.5107 390.63 88.2002 391.481 88.2002C392.331 88.2002 393.021 87.5107 393.021 86.6583V68.1681C393.021 67.3174 392.331 66.6262 391.481 66.6262ZM397.645 69.7082C396.794 69.7082 396.103 70.3994 396.103 71.2501V83.5763C396.103 84.4287 396.794 85.1182 397.645 85.1182C398.495 85.1182 399.185 84.4287 399.185 83.5763V71.2501C399.185 70.3994 398.495 69.7082 397.645 69.7082ZM403.809 57.3802C402.958 57.3802 402.267 58.0714 402.267 58.9221V95.9043C402.267 96.7567 402.958 97.4462 403.809 97.4462C404.659 97.4462 405.349 96.7567 405.349 95.9043V58.9221C405.349 58.0714 404.659 57.3802 403.809 57.3802ZM409.973 69.7082C409.122 69.7082 408.431 70.3994 408.431 71.2501V83.5763C408.431 84.4287 409.122 85.1182 409.973 85.1182C410.823 85.1182 411.513 84.4287 411.513 83.5763V71.2501C411.513 70.3994 410.823 69.7082 409.973 69.7082ZM416.135 41.972C415.284 41.972 414.595 42.6614 414.595 43.5121V111.314C414.595 112.167 415.284 112.854 416.135 112.854C416.986 112.854 417.677 112.167 417.677 111.314V43.5121C417.677 42.6614 416.986 41.972 416.135 41.972ZM422.299 54.2982C421.448 54.2982 420.759 54.9894 420.759 55.8401V98.9863C420.759 99.8387 421.448 100.528 422.299 100.528C423.15 100.528 423.841 99.8387 423.841 98.9863V55.8401C423.841 54.9894 423.15 54.2982 422.299 54.2982ZM428.463 60.4622C427.61 60.4622 426.923 61.1534 426.923 62.0041V92.8223C426.923 93.6747 427.61 94.3642 428.463 94.3642C429.315 94.3642 430.005 93.6747 430.005 92.8223V62.0041C430.005 61.1534 429.315 60.4622 428.463 60.4622ZM434.627 69.7082C433.774 69.7082 433.087 70.3994 433.087 71.2501V83.5763C433.087 84.4287 433.774 85.1182 434.627 85.1182C435.479 85.1182 436.169 84.4287 436.169 83.5763V71.2501C436.169 70.3994 435.479 69.7082 434.627 69.7082ZM440.791 72.7902C439.938 72.7902 439.251 73.4796 439.251 74.3303V80.4943C439.251 81.3467 439.938 82.0362 440.791 82.0362C441.643 82.0362 442.333 81.3467 442.333 80.4943V74.3303C442.333 73.4796 441.643 72.7902 440.791 72.7902ZM446.955 60.4622C446.102 60.4622 445.413 61.1534 445.413 62.0041V89.7403C445.413 90.5927 446.102 91.2822 446.955 91.2822C447.807 91.2822 448.495 90.5927 448.495 89.7403V62.0041C448.495 61.1534 447.807 60.4622 446.955 60.4622ZM453.119 69.7082C452.266 69.7082 451.577 70.3994 451.577 71.2501V83.5763C451.577 84.4287 452.266 85.1182 453.119 85.1182C453.971 85.1182 454.659 84.4287 454.659 83.5763V71.2501C454.659 70.3994 453.971 69.7082 453.119 69.7082ZM459.283 72.7902C458.43 72.7902 457.741 73.4796 457.741 74.3303V80.4943C457.741 81.3467 458.43 82.0362 459.283 82.0362C460.135 82.0362 460.823 81.3467 460.823 80.4943V74.3303C460.823 73.4796 460.135 72.7902 459.283 72.7902Z" fill="#7F5AF0"/>
<path d="M304.324 56.0114C304.417 54.4924 304.066 52.9554 303.264 51.6158C308.676 47.0202 311.019 39.3834 308.565 32.2949C305.381 23.0788 295.299 18.1995 286.102 21.4232C279.013 23.8935 274.472 30.4668 274.232 37.5655C272.687 37.7613 271.263 38.4392 270.136 39.4579C269.578 29.9487 275.328 20.8173 284.749 17.5208C296.115 13.5482 308.522 19.5529 312.459 30.9313C315.713 40.3623 312.124 50.5398 304.324 56.0114Z" fill="#7F5AF0" stroke="#7F5AF0" stroke-width="1.0073"/>
<path d="M299.51 45.8265L301.778 47.49C302.766 48.2147 302.857 49.6615 301.968 50.5093L291.42 60.5722C290.531 61.42 289.094 61.2582 288.421 60.2332L286.875 57.8803C285.973 56.5065 286.184 54.679 287.376 53.5409L295.162 46.1131C296.354 44.9759 298.185 44.8552 299.51 45.8265ZM301.023 60.1023C298.838 62.1804 295.572 62.3895 293.185 60.766L302.081 52.2812C303.576 54.7498 303.203 58.0154 301.023 60.1023Z" fill="#7F5AF0"/>
</svg>
